<svg id="Capa_1" enable-background="new 0 0 512 512" height="512" viewBox="0 0 512 512" width="512" xmlns="http://www.w3.org/2000/svg" xmlns:xlink="http://www.w3.org/1999/xlink"><linearGradient id="SVGID_1_" gradientUnits="userSpaceOnUse" x1="256" x2="256" y1="512" y2="0"><stop offset="0" stop-color="#addcff"/><stop offset=".5028" stop-color="#eaf6ff"/><stop offset="1" stop-color="#eaf6ff"/></linearGradient><linearGradient id="SVGID_2_" gradientUnits="userSpaceOnUse" x1="256" x2="256" y1="407" y2="105"><stop offset="0" stop-color="#00c0ff"/><stop offset="1" stop-color="#5558ff"/></linearGradient><g><g><circle cx="256" cy="256" fill="url(#SVGID_1_)" r="256"/></g><g><g><path d="m399.808 287.184c-3.351-2.073-7.689-1.691-10.633.963-21.318 19.369-48.75 30.03-77.238 30.03-63.557 0-115.269-51.802-115.269-115.471 0-28.538 10.642-56.018 29.977-77.374 2.65-2.941 3.048-7.278.961-10.652-2.087-3.366-6.148-4.927-9.949-3.86-64.561 18.303-109.657 78.007-109.657 145.18 0 83.263 67.618 151 150.736 151 67.055 0 126.655-45.175 144.926-109.85 1.082-3.816-.494-7.876-3.854-9.966zm-141.072-40.066c14.668 0 26.6 11.953 26.6 26.647 0 4.91 3.966 8.882 8.867 8.882s8.867-3.973 8.867-8.882c0-14.694 11.932-26.647 26.6-26.647 4.901 0 8.867-3.973 8.867-8.882 0-4.91-3.966-8.882-8.867-8.882-14.668 0-26.6-11.953-26.6-26.647 0-4.91-3.966-8.882-8.867-8.882s-8.867 3.973-8.867 8.882c0 14.694-11.932 26.647-26.6 26.647-4.901 0-8.867 3.973-8.867 8.882s3.966 8.882 8.867 8.882zm53.201-88.824c14.668 0 26.6 11.953 26.6 26.647 0 4.91 3.966 8.882 8.867 8.882s8.867-3.973 8.867-8.882c0-14.694 11.932-26.647 26.6-26.647 4.901 0 8.867-3.973 8.867-8.882 0-4.91-3.966-8.882-8.867-8.882-14.668 0-26.6-11.953-26.6-26.647 0-4.91-3.966-8.882-8.867-8.882s-8.867 3.973-8.867 8.882c0 14.694-11.932 26.647-26.6 26.647-4.901 0-8.867 3.973-8.867 8.882s3.966 8.882 8.867 8.882z" fill="url(#SVGID_2_)"/></g></g></g></svg>