<svg id="Capa_1" enable-background="new 0 0 512 512" height="512" viewBox="0 0 512 512" width="512" xmlns="http://www.w3.org/2000/svg" xmlns:xlink="http://www.w3.org/1999/xlink"><linearGradient id="SVGID_1_" gradientUnits="userSpaceOnUse" x1="256" x2="256" y1="512" y2="0"><stop offset="0" stop-color="#ffe59a"/><stop offset="1" stop-color="#ffffd5"/></linearGradient><linearGradient id="SVGID_2_" gradientUnits="userSpaceOnUse" x1="256" x2="256" y1="407" y2="105"><stop offset="0" stop-color="#ffde00"/><stop offset="1" stop-color="#fd5900"/></linearGradient><g><g><circle cx="256" cy="256" fill="url(#SVGID_1_)" r="256"/></g><g><g><path d="m256 176.059c-44.082 0-79.941 35.859-79.941 79.941s35.859 79.941 79.941 79.941 79.941-35.859 79.941-79.941-35.859-79.941-79.941-79.941zm0-17.765c4.91 0 8.882-3.973 8.882-8.882v-35.529c0-4.91-3.973-8.882-8.882-8.882s-8.882 3.973-8.882 8.882v35.529c0 4.909 3.972 8.882 8.882 8.882zm0 195.412c-4.91 0-8.882 3.973-8.882 8.882v35.529c0 4.91 3.973 8.882 8.882 8.882s8.882-3.973 8.882-8.882v-35.529c0-4.909-3.972-8.882-8.882-8.882zm-97.706-97.706c0-4.91-3.973-8.882-8.882-8.882h-35.529c-4.91 0-8.882 3.973-8.882 8.882s3.973 8.882 8.882 8.882h35.529c4.909 0 8.882-3.972 8.882-8.882zm239.824-8.882h-35.529c-4.91 0-8.882 3.973-8.882 8.882s3.973 8.882 8.882 8.882h35.529c4.91 0 8.882-3.973 8.882-8.882s-3.973-8.882-8.882-8.882zm-223.768-60.199c3.47 3.47 9.091 3.47 12.56 0 3.47-3.47 3.47-9.091 0-12.561l-25.12-25.138c-3.47-3.47-9.091-3.47-12.56 0s-3.47 9.091 0 12.561zm163.3 138.162c-3.47-3.47-9.09-3.47-12.56 0s-3.47 9.091 0 12.56l25.12 25.138c3.47 3.47 9.091 3.469 12.56 0 3.47-3.47 3.47-9.091 0-12.561zm-163.3 0-25.12 25.138c-3.47 3.47-3.47 9.091 0 12.561s9.091 3.469 12.56 0l25.12-25.138c3.47-3.469 3.47-9.09 0-12.56-3.469-3.471-9.09-3.471-12.56-.001zm163.3-138.162 25.12-25.138c3.47-3.47 3.47-9.091 0-12.561s-9.09-3.47-12.56 0l-25.12 25.138c-3.47 3.47-3.47 9.091 0 12.561s9.09 3.47 12.56 0z" fill="url(#SVGID_2_)"/></g></g></g></svg>